<svg t="1727601089685" class="icon" viewBox="0 0 1024 1024" version="1.1" xmlns="http://www.w3.org/2000/svg" p-id="1542" id="mx_n_1727601089685" width="16" height="16"><path d="M1024 824.206222c0 47.445333-38.229333 85.902222-85.333333 85.902222h-853.333334c-47.160889 0-85.333333-38.456889-85.333333-85.902222V199.566222c0-47.445333 38.172444-85.902222 85.333333-85.902222h853.333334c31.459556 0 58.652444 17.408 73.443555 42.951111h0.796445l-0.568889 0.455111c7.224889 12.572444 11.662222 26.965333 11.662222 42.496v624.64z m-954.197333 15.644445H954.140444V188.188444l-371.256888 373.76a92.672 92.672 0 0 1-131.697778 0L69.802667 183.921778v655.872zM162.872889 183.978667l354.190222 335.075555 344.007111-335.075555H162.872889z" p-id="1543"></path></svg>